#!OML:ASF G:\JayActor3\Patient Classification 1\Patient 1\Session 5\male.ASF
:FULLY-SPECIFIED
:DEGREES
486
root 21.444 16.4736 -4.02154 -114.461 88.6893 -139.331
lowerback 29.5358 -0.943541 0.424167
upperback 6.25371 -0.56989 -0.47345
thorax -9.24296 -0.0530882 -0.608647
lowerneck 4.82503 -0.374982 1.03201
upperneck -19.4993 0.450584 2.56007
head -6.73182 0.109697 0.595915
rclavicle -2.84262e-014 -4.57205e-014
rhumerus -28.9629 2.77059 -88.0686
rradius 34.1396
rwrist -2.50417
rhand -21.377 -6.57158
rfingers 7.12502
rthumb 5.01029 -36.4923
lclavicle -2.84262e-014 -4.57205e-014
lhumerus -28.9304 -4.89645 86.3695
lradius 31.9817
lwrist 21.5514
lhand -20.5689 9.55642
lfingers 7.12502
lthumb 5.79059 39.4573
rfemur -52.7377 3.34222 23.8955
rtibia 45.5811
rfoot -19.3477 -13.6951
rtoes 13.5379
lfemur -63.8206 5.71982 -15.9956
ltibia 83.2504
lfoot -2.96198 -0.737311
ltoes -18.6357
487
root 21.357 16.4968 -4.0257 -116.72 88.7315 -141.738
lowerback 29.4116 -0.929813 0.403889
upperback 6.23059 -0.563974 -0.477371
thorax -9.20814 -0.0517099 -0.603448
lowerneck 4.82175 -0.391331 1.02323
upperneck -19.5191 0.42746 2.55758
head -6.73738 0.0994369 0.598283
rclavicle 2.38542e-014 1.96797e-014
rhumerus -28.9531 2.75866 -88.0442
rradius 34.1741
rwrist -2.57094
rhand -21.388 -6.57499
rfingers 7.12502
rthumb 4.99976 -36.496
lclavicle 2.38542e-014 1.96797e-014
lhumerus -28.9082 -4.77802 86.2847
lradius 31.9942
lwrist 21.4781
lhand -20.5165 9.6192
lfingers 7.12502
lthumb 5.84118 39.5187
rfemur -52.8991 3.20496 23.7811
rtibia 44.985
rfoot -18.8201 -13.493
rtoes 13.7499
lfemur -63 5.76607 -15.9522
ltibia 83.8164
lfoot -2.84091 -0.862461
ltoes -18.5709
488
root 21.271 16.518 -4.03044 -118.899 88.7664 -144.043
lowerback 29.2996 -0.91627 0.387101
upperback 6.20887 -0.556693 -0.480639
thorax -9.17762 -0.0496192 -0.600013
lowerneck 4.81873 -0.402966 1.018
upperneck -19.5205 0.410036 2.55435
head -6.7371 0.0916363 0.599382
rclavicle -1.98785e-016 -1.53064e-014
rhumerus -28.9494 2.75987 -88.0321
rradius 34.2089
rwrist -2.58493
rhand -21.3738 -6.57522
rfingers 7.12502
rthumb 5.01346 -36.4959
lclavicle -1.98785e-016 -1.53064e-014
lhumerus -28.898 -4.65801 86.1992
lradius 32.0277
lwrist 21.4361
lhand -20.4925 9.67032
lfingers 7.12502
lthumb 5.86432 39.5692
rfemur -53.0498 3.08615 23.6715
rtibia 44.4142
rfoot -18.2961 -13.3338
rtoes 13.9465
lfemur -62.1203 5.81431 -15.9146
ltibia 84.241
lfoot -2.79459 -0.966543
ltoes -18.6534
489
root 21.1856 16.5367 -4.03547 -121.102 88.789 -146.361
lowerback 29.1905 -0.905115 0.371497
upperback 6.18826 -0.551367 -0.479759
thorax -9.14722 -0.0483421 -0.591885
lowerneck 4.81409 -0.408088 1.0133
upperneck -19.5075 0.401392 2.55365
head -6.732 0.0878218 0.600542
rclavicle -1.51076e-014 -3.73715e-014
rhumerus -28.9471 2.78608 -88.0297
rradius 34.2435
rwrist -2.56208
rhand -21.3382 -6.5705
rfingers 7.12502
rthumb 5.0478 -36.4904
lclavicle -1.51076e-014 -3.73715e-014
lhumerus -28.9008 -4.5426 86.1183
lradius 32.0853
lwrist 21.4288
lhand -20.4993 9.70172
lfingers 7.12502
lthumb 5.85778 39.6007
rfemur -53.2071 2.99787 23.5626
rtibia 43.8752
rfoot -17.7799 -13.2386
rtoes 14.1399
lfemur -61.205 5.86174 -15.879
ltibia 84.5305
lfoot -2.84671 -1.04874
ltoes -18.8378
490
root 21.1005 16.553 -4.04056 -123.532 88.7971 -148.897
lowerback 29.0854 -0.897535 0.357507
upperback 6.16801 -0.549432 -0.475049
thorax -9.11831 -0.0485659 -0.579174
lowerneck 4.80383 -0.409187 1.0021
upperneck -19.4771 0.398358 2.5626
head -6.72037 0.0864312 0.605448
rclavicle -2.04748e-014 -1.21259e-014
rhumerus -28.9506 2.82678 -88.0344
rradius 34.2846
rwrist -2.51113
rhand -21.2861 -6.55892
rfingers 7.12502
rthumb 5.09811 -36.4776
lclavicle -2.04748e-014 -1.21259e-014
lhumerus -28.917 -4.44912 86.0475
lradius 32.1643
lwrist 21.4508
lhand -20.5756 9.6484
lfingers 7.12502
lthumb 5.78415 39.5495
rfemur -53.3758 2.9472 23.4461
rtibia 43.372
rfoot -17.2803 -13.2097
rtoes 14.3563
lfemur -60.2634 5.90284 -15.8467
ltibia 84.6848
lfoot -3.01435 -1.10647
ltoes -19.112
491
root 21.0159 16.5668 -4.04565 -125.954 88.7859 -151.415
lowerback 28.9821 -0.894104 0.351104
upperback 6.14921 -0.549773 -0.465825
thorax -9.08864 -0.0498821 -0.564984
lowerneck 4.79476 -0.407272 0.994969
upperneck -19.4386 0.399959 2.57371
head -6.70643 0.0867716 0.610016
rclavicle 1.07344e-014 -4.77083e-015
rhumerus -28.9583 2.87148 -88.0446
rradius 34.3282
rwrist -2.44496
rhand -21.2343 -6.54192
rfingers 7.12502
rthumb 5.1481 -36.4594
lclavicle 1.07344e-014 -4.77083e-015
lhumerus -28.94 -4.38753 85.9902
lradius 32.2547
lwrist 21.494
lhand -20.7074 9.52213
lfingers 7.12502
lthumb 5.65684 39.4266
rfemur -53.5551 2.94086 23.323
rtibia 42.9059
rfoot -16.8029 -13.2578
rtoes 14.6001
lfemur -59.2999 5.94072 -15.8121
ltibia 84.7019
lfoot -3.28353 -1.14451
ltoes -19.392
492
root 20.9314 16.5783 -4.05073 -128.396 88.7605 -153.94
lowerback 28.8858 -0.892868 0.350355
upperback 6.13114 -0.550756 -0.454886
thorax -9.06156 -0.0514991 -0.551928
lowerneck 4.78797 -0.406376 0.983918
upperneck -19.392 0.401251 2.59592
head -6.6903 0.0862578 0.618819
rclavicle 3.37934e-015 1.55052e-014
rhumerus -28.9771 2.92146 -88.0573
rradius 34.3819
rwrist -2.39815
rhand -21.1809 -6.52355
rfingers 7.12502
rthumb 5.19969 -36.4398
lclavicle 3.37934e-015 1.55052e-014
lhumerus -28.9666 -4.35947 85.9446
lradius 32.3494
lwrist 21.523
lhand -20.852 9.36392
lfingers 7.12502
lthumb 5.51724 39.2721
rfemur -53.7426 2.97837 23.1863
rtibia 42.4765
rfoot -16.3528 -13.363
rtoes 14.862
lfemur -58.3165 5.97466 -15.7823
ltibia 84.5824
lfoot -3.63104 -1.16289
ltoes -19.6777
493
root 20.8476 16.5876 -4.05621 -130.557 88.7242 -156.163
lowerback 28.8008 -0.893469 0.359308
upperback 6.1165 -0.550608 -0.443528
thorax -9.03625 -0.052572 -0.544433
lowerneck 4.78653 -0.406528 0.969463
upperneck -19.3418 0.401865 2.62583
head -6.67395 0.0849208 0.63071
rclavicle 1.31198e-014 2.50469e-014
rhumerus -29.0022 2.95697 -88.073
rradius 34.4356
rwrist -2.36752
rhand -21.139 -6.50168
rfingers 7.12502
rthumb 5.24011 -36.4169
lclavicle 1.31198e-014 2.50469e-014
lhumerus -28.9917 -4.35944 85.9103
lradius 32.4392
lwrist 21.5293
lhand -20.9953 9.19159
lfingers 7.12502
lthumb 5.37884 39.1033
rfemur -53.9245 3.05241 23.04
rtibia 42.0821
rfoot -15.9317 -13.5108
rtoes 15.1422
lfemur -57.3003 6.00537 -15.7562
ltibia 84.3235
lfoot -3.99378 -1.16284
ltoes -19.7288
494
root 20.7643 16.595 -4.06221 -132.539 88.6848 -158.185
lowerback 28.7274 -0.894718 0.370715
upperback 6.10548 -0.550063 -0.433003
thorax -9.01252 -0.0532831 -0.53945
lowerneck 4.79145 -0.407216 0.956036
upperneck -19.2915 0.401423 2.65383
head -6.65872 0.0830248 0.641899
rclavicle 1.09332e-014 2.72335e-014
rhumerus -29.0305 2.98496 -88.0896
rradius 34.4866
rwrist -2.36873
rhand -21.1163 -6.48345
rfingers 7.12502
rthumb 5.26204 -36.3981
lclavicle 1.09332e-014 2.72335e-014
lhumerus -29.0125 -4.38334 85.8875
lradius 32.5135
lwrist 21.5304
lhand -21.1365 9.01345
lfingers 7.12502
lthumb 5.24251 38.9286
rfemur -54.1009 3.15243 22.8805
rtibia 41.7218
rfoot -15.5489 -13.6808
rtoes 15.49
lfemur -56.2551 6.02934 -15.7408
ltibia 83.925
lfoot -4.33262 -1.16731
ltoes -19.6546
495
root 20.6813 16.6003 -4.06894 -134.247 88.6375 -159.912
lowerback 28.6639 -0.899857 0.39102
upperback 6.09828 -0.551269 -0.422125
thorax -8.9895 -0.0547703 -0.538609
lowerneck 4.80832 -0.407317 0.957098
upperneck -19.2528 0.400946 2.66455
head -6.64928 0.0813029 0.645166
rclavicle 1.39149e-014 2.96189e-014
rhumerus -29.0559 3.00625 -88.1064
rradius 34.5281
rwrist -2.39842
rhand -21.1063 -6.46936
rfingers 7.12502
rthumb 5.27173 -36.3838
lclavicle 1.39149e-014 2.96189e-014
lhumerus -29.0281 -4.41518 85.8718
lradius 32.5708
lwrist 21.5246
lhand -21.249 8.85605
lfingers 7.12502
lthumb 5.13388 38.7739
rfemur -54.2725 3.25961 22.7204
rtibia 41.3945
rfoot -15.1815 -13.8726
rtoes 15.8182
lfemur -55.192 6.04304 -15.7298
ltibia 83.3914
lfoot -4.63465 -1.19344
ltoes -19.4412
